<svg width="96" height="77" viewBox="0 0 96 77" fill="none" xmlns="http://www.w3.org/2000/svg">
<path d="M9.70242 76.9829C7.07104 76.9829 4.81923 76.0467 2.94697 74.1745C1.0747 72.3022 0.136979 70.0488 0.133789 67.4142L0.133789 10.0025C0.133789 7.37109 1.07151 5.11928 2.94697 3.24701C4.82242 1.37475 7.07423 0.437027 9.70242 0.433838L86.2514 0.433838C88.8828 0.433838 91.1362 1.37156 93.0117 3.24701C94.8871 5.12246 95.8233 7.37428 95.8201 10.0025V67.4142C95.8201 70.0456 94.8839 72.299 93.0117 74.1745C91.1394 76.0499 88.886 76.9861 86.2514 76.9829H9.70242ZM86.2514 19.5711L50.4887 41.9378C50.09 42.177 49.6722 42.3572 49.2352 42.4784C48.7982 42.5996 48.3788 42.6586 47.9769 42.6554C47.575 42.6522 47.1572 42.5932 46.7234 42.4784C46.2897 42.3636 45.8702 42.1834 45.4652 41.9378L9.70242 19.5711L9.70242 67.4142H86.2514V19.5711ZM47.9769 33.924L86.2514 10.0025L9.70242 10.0025L47.9769 33.924ZM9.70242 20.7672V13.7103V13.8299V13.7725V20.7672Z" fill="#FAFAFA"/>
</svg>
