<svg width="97" height="95" viewBox="0 0 97 95" fill="none" xmlns="http://www.w3.org/2000/svg">
<path d="M48.3304 0.865234C42.0476 0.865234 35.8263 2.10273 30.0217 4.50708C24.2171 6.91142 18.9429 10.4355 14.5002 14.8782C5.52791 23.8505 0.487305 36.0196 0.487305 48.7084C0.487305 69.855 14.2183 87.7962 33.212 94.1594C35.6042 94.5421 36.3697 93.059 36.3697 91.7672V83.6817C23.1171 86.5523 20.2944 77.2707 20.2944 77.2707C18.0936 71.7209 14.9838 70.2378 14.9838 70.2378C10.6301 67.2715 15.3187 67.3672 15.3187 67.3672C20.103 67.7021 22.6387 72.295 22.6387 72.295C26.801 79.5672 33.834 77.4143 36.561 76.266C36.9916 73.1562 38.2355 71.0511 39.5752 69.855C28.954 68.659 17.8065 64.5444 17.8065 46.3162C17.8065 41.0056 19.6246 36.7476 22.7344 33.3507C22.2559 32.1546 20.5814 27.179 23.2128 20.7201C23.2128 20.7201 27.2316 19.4284 36.3697 25.6001C40.1493 24.5476 44.2638 24.0213 48.3304 24.0213C52.3971 24.0213 56.5116 24.5476 60.2912 25.6001C69.4293 19.4284 73.4481 20.7201 73.4481 20.7201C76.0795 27.179 74.405 32.1546 73.9265 33.3507C77.0363 36.7476 78.8544 41.0056 78.8544 46.3162C78.8544 64.5923 67.6591 68.6111 56.9901 69.8072C58.7124 71.2903 60.2912 74.2088 60.2912 78.6582V91.7672C60.2912 93.059 61.0567 94.5899 63.4967 94.1594C82.4904 87.7484 96.1736 69.855 96.1736 48.7084C96.1736 42.4255 94.9361 36.2042 92.5317 30.3996C90.1274 24.595 86.6033 19.3208 82.1607 14.8782C77.718 10.4355 72.4438 6.91142 66.6392 4.50708C60.8346 2.10273 54.6133 0.865234 48.3304 0.865234Z" fill="#FAFAFA"/>
</svg>
