<svg width="97" height="97" viewBox="0 0 97 97" fill="none" xmlns="http://www.w3.org/2000/svg">
<path d="M28.3179 0.568604L68.5061 0.568604C83.8159 0.568604 96.2551 13.0078 96.2551 28.3176V68.5059C96.2551 75.8654 93.3316 82.9234 88.1276 88.1274C82.9237 93.3313 75.8656 96.2549 68.5061 96.2549H28.3179C13.0081 96.2549 0.568848 83.8157 0.568848 68.5059L0.568848 28.3176C0.568848 20.9581 3.4924 13.9001 8.69635 8.6961C13.9003 3.49215 20.9584 0.568604 28.3179 0.568604ZM27.361 10.1372C22.793 10.1372 18.4122 11.9518 15.1821 15.1819C11.9521 18.4119 10.1375 22.7928 10.1375 27.3608L10.1375 69.4627C10.1375 78.9835 17.8402 86.6863 27.361 86.6863H69.463C74.0309 86.6863 78.4118 84.8716 81.6419 81.6416C84.8719 78.4116 86.6865 74.0307 86.6865 69.4627V27.3608C86.6865 17.84 78.9838 10.1372 69.463 10.1372L27.361 10.1372ZM73.5296 17.3137C75.1157 17.3137 76.6369 17.9438 77.7584 19.0653C78.88 20.1869 79.51 21.708 79.51 23.2941C79.51 24.8802 78.88 26.4013 77.7584 27.5229C76.6369 28.6444 75.1157 29.2745 73.5296 29.2745C71.9435 29.2745 70.4224 28.6444 69.3009 27.5229C68.1793 26.4013 67.5492 24.8802 67.5492 23.2941C67.5492 21.708 68.1793 20.1869 69.3009 19.0653C70.4224 17.9438 71.9435 17.3137 73.5296 17.3137ZM48.412 24.4902C54.7564 24.4902 60.8409 27.0105 65.3271 31.4966C69.8133 35.9828 72.3336 42.0673 72.3336 48.4117C72.3336 54.7561 69.8133 60.8407 65.3271 65.3268C60.8409 69.813 54.7564 72.3333 48.412 72.3333C42.0676 72.3333 35.983 69.813 31.4969 65.3268C27.0107 60.8407 24.4904 54.7561 24.4904 48.4117C24.4904 42.0673 27.0107 35.9828 31.4969 31.4966C35.983 27.0105 42.0676 24.4902 48.412 24.4902ZM48.412 34.0588C44.6054 34.0588 40.9546 35.571 38.2629 38.2627C35.5712 40.9544 34.059 44.6051 34.059 48.4117C34.059 52.2184 35.5712 55.8691 38.2629 58.5608C40.9546 61.2525 44.6054 62.7647 48.412 62.7647C52.2186 62.7647 55.8694 61.2525 58.5611 58.5608C61.2528 55.8691 62.7649 52.2184 62.7649 48.4117C62.7649 44.6051 61.2528 40.9544 58.5611 38.2627C55.8694 35.571 52.2186 34.0588 48.412 34.0588Z" fill="#FAFAFA"/>
</svg>
