<svg width="87" height="87" viewBox="0 0 87 87" fill="none" xmlns="http://www.w3.org/2000/svg">
<path d="M76.9968 0.649658C79.5345 0.649658 81.9683 1.65778 83.7628 3.45224C85.5573 5.24671 86.5654 7.68053 86.5654 10.2183V77.1987C86.5654 79.7364 85.5573 82.1703 83.7628 83.9647C81.9683 85.7592 79.5345 86.7673 76.9968 86.7673H10.0164C7.47862 86.7673 5.04481 85.7592 3.25034 83.9647C1.45587 82.1703 0.447754 79.7364 0.447754 77.1987L0.447754 10.2183C0.447754 7.68053 1.45587 5.24671 3.25034 3.45224C5.04481 1.65778 7.47862 0.649658 10.0164 0.649658L76.9968 0.649658ZM74.6046 74.8065V49.4497C74.6046 45.3131 72.9614 41.346 70.0364 38.421C67.1114 35.496 63.1443 33.8528 59.0078 33.8528C54.9411 33.8528 50.2046 36.3406 47.9081 40.0724V34.7618H34.5599V74.8065H47.9081V51.2199C47.9081 47.5359 50.8744 44.5218 54.5583 44.5218C56.3348 44.5218 58.0384 45.2275 59.2946 46.4836C60.5507 47.7398 61.2564 49.4434 61.2564 51.2199V74.8065H74.6046ZM19.0109 27.2504C21.1426 27.2504 23.187 26.4036 24.6944 24.8963C26.2017 23.3889 27.0485 21.3445 27.0485 19.2128C27.0485 14.7634 23.4603 11.1273 19.0109 11.1273C16.8665 11.1273 14.8099 11.9792 13.2936 13.4955C11.7773 15.0118 10.9254 17.0684 10.9254 19.2128C10.9254 23.6622 14.5615 27.2504 19.0109 27.2504ZM25.6611 74.8065L25.6611 34.7618H12.4085V74.8065H25.6611Z" fill="#FAFAFA"/>
</svg>
