<svg width="87" height="87" viewBox="0 0 87 87" fill="none" xmlns="http://www.w3.org/2000/svg">
<path d="M17.4139 37.9195C24.3034 51.4591 35.403 62.5108 48.9426 69.4481L59.4681 58.9226C60.7598 57.6308 62.6736 57.2002 64.3481 57.7744C69.7065 59.5446 75.4955 60.5014 81.4281 60.5014C84.0594 60.5014 86.2124 62.6544 86.2124 65.2857V81.983C86.2124 84.6144 84.0594 86.7673 81.4281 86.7673C36.5034 86.7673 0.0947266 50.3587 0.0947266 5.43397C0.0947266 2.8026 2.24767 0.649658 4.87904 0.649658L21.6241 0.649658C24.2555 0.649658 26.4085 2.8026 26.4085 5.43397C26.4085 11.4144 27.3653 17.1555 29.1355 22.514C29.6618 24.1885 29.279 26.0544 27.9394 27.394L17.4139 37.9195Z" fill="#FAFAFA"/>
</svg>
